<svg aria-hidden="true" style="position: absolute; width: 0px; height: 0px; overflow: hidden;"><symbol id="ef-pay-alipay" viewBox="0 0 1025 1024"><path d="M933.875 667.769v-415.398c0-89.578-72.64-162.247-162.247-162.247h-519.257c-89.578 0-162.247 72.64-162.247 162.247v519.257c0 89.578 72.64 162.247 162.247 162.247h519.257c79.833 0 146.234-57.694 159.739-133.674-43.010-18.503-229.54-99.030-326.659-145.483-73.909 89.539-151.342 143.264-268.058 143.264-116.716 0-194.602-71.798-185.212-159.831 6.163-57.78 45.78-152.112 217.775-135.887 90.651 8.552 132.162 25.462 206.163 49.822 19.016-35.045 34.979-73.643 46.962-114.726h-327.761v-32.452h162.143v-58.413h-197.819v-35.697h197.819v-84.151c0 0 1.864-13.205 16.339-13.205h81.13v97.356h210.937v35.697h-210.938v58.413h171.995c-15.769 64.437-39.718 123.547-69.793 175.278 50.030 18.048 277.485 87.583 277.485 87.583 0 0 0 0 0 0zM323.779 742.407c-123.318 0-142.788-77.885-136.298-110.337s42.188-74.64 110.743-74.64c78.833 0 149.316 20.114 234.033 61.377-59.424 77.44-132.575 123.6-208.477 123.6z"></path></symbol><symbol id="ef-pay-wepay" viewBox="0 0 1024 1024"><path d="M878.965789 189.006701c10.706853 9.1678 20.612457 19.247366 31.018457 28.749788 20.296255 18.547425 16.515139 30.357402-8.388041 41.348734-158.298306 69.913303-316.234361 140.645251-474.255351 211.166397-25.50386 11.384281-48.596811 10.717086-71.727625-7.741311-26.019607-20.793582-53.957913-39.192627-81.317027-58.284451-9.18929-6.40692-19.348674-16.84976-30.872125-8.260128-12.963243 9.653871-2.026146 21.159926 2.403746 30.905894 25.441439 56.101739 50.999534 112.11138 77.289294 167.816077 18.131963 38.434358 31.966039 43.776016 68.022233 23.436782 61.352323-34.546817 121.587196-71.097268 182.539406-106.372679 121.934097-70.553892 244.337891-140.345422 365.816616-211.685213 22.569018-13.267165 30.317493-4.372587 40.809451 14.266935 80.392982 142.924153 46.632063 340.068186-77.897138 451.723172C746.755652 905.632125 566.243415 943.974385 365.67233 897.163243c-28.430516-6.618744-52.086285-4.978385-76.564793 10.778484-28.006867 18.000979-57.053414 34.546817-86.539982 50.028417-25.218358 13.237489-40.646746 2.459005-36.364209-25.955138 3.612271-24.012903 9.897418-47.905056 17.692964-70.91512 9.420557-27.838022 0.462534-44.595684-22.730701-61.59587C8.744151 687.87666-43.187615 493.677703 38.438451 325.798181c62.753229-129.020492 172.062797-204.092281 307.638589-242.891959 51.986001-14.874779 105.057731-23.465434 135.421272-22.401196C644.718721 60.534701 771.32728 97.055476 878.965789 189.006701z"></path></symbol><symbol id="ef-pay-points" viewBox="0 0 1024 1024"><path d="M511.932852 1003.30177c-270.940328 0-491.352131-220.42859-491.352131-491.352131 0-270.940328 220.42859-491.352131 491.352131-491.352131 270.923541 0 491.352131 220.42859 491.352131 491.352131C1003.30177 782.87318 782.87318 1003.30177 511.932852 1003.30177zM511.932852 42.420459c-258.887344 0-469.512393 210.625049-469.512393 469.512393 0 258.887344 210.625049 469.512393 469.512393 469.512393 258.887344 0 469.512393-210.625049 469.512393-469.512393C981.462033 253.045508 770.820197 42.420459 511.932852 42.420459z"></path><path d="M348.764328 730.162361l-138.307148 0 0-235.52 138.307148 0L348.764328 730.162361zM232.280131 708.322623l94.627672 0L326.907803 516.482098l-94.627672 0L232.280131 708.322623z"></path><path d="M670.065311 306.478164l-62.699016 0c-20.664656 0-37.485115-16.820459-37.485115-37.485115s16.820459-37.485115 37.485115-37.485115l62.699016 0c20.681443 0 37.501902 16.820459 37.501902 37.485115S690.746754 306.478164 670.065311 306.478164zM607.366295 253.330885c-8.628459 0-15.645377 7.016918-15.645377 15.645377 0 8.628459 7.016918 15.645377 15.645377 15.645377l62.699016 0c8.645246 0 15.662164-7.016918 15.662164-15.645377 0-8.628459-7.016918-15.645377-15.662164-15.645377L607.366295 253.330885z"></path><path d="M685.54282 514.85377l-62.699016 0c-20.664656 0-37.485115-16.820459-37.485115-37.485115 0-20.664656 16.820459-37.485115 37.485115-37.485115l62.699016 0c20.681443 0 37.501902 16.820459 37.501902 37.485115C723.044721 498.033311 706.224262 514.85377 685.54282 514.85377zM622.827016 461.706492c-8.628459 0-15.645377 7.016918-15.645377 15.645377s7.016918 15.645377 15.645377 15.645377l62.699016 0c8.645246 0 15.662164-7.016918 15.662164-15.645377s-7.016918-15.645377-15.662164-15.645377L622.827016 461.706492z"></path><path d="M535.703082 414.216393l-62.699016 0c-20.681443 0-37.501902-16.820459-37.501902-37.485115 0-20.664656 16.820459-37.485115 37.501902-37.485115l62.699016 0c20.664656 0 37.485115 16.820459 37.485115 37.485115C573.204984 397.395934 556.384525 414.216393 535.703082 414.216393zM473.004066 361.069115c-8.645246 0-15.662164 7.016918-15.662164 15.645377s7.016918 15.645377 15.662164 15.645377l62.699016 0c8.628459 0 15.645377-7.016918 15.645377-15.645377s-7.016918-15.645377-15.645377-15.645377L473.004066 361.069115z"></path><path d="M562.813902 783.292852c-86.536393 0-230.18177-95.030557-236.258623-99.076197l12.120131-18.16341c1.426885 0.956852 144.182557 95.416656 224.138492 95.416656 19.321705 0 140.220852-22.276197 248.429115-128.184656l2.249443-2.182295c1.695475-4.85141 3.273443-16.283279 0.788984-26.13718-1.007213-3.995279-3.088787-9.249574-7.285508-11.515803-18.448787-9.602098-42.957639-1.712262-48.044066 0.134295l-103.440787 71.881443-205.303607 0 0-21.839738 198.454557 0 100.989902-69.883803c1.527607-0.637902 37.61941-15.208918 67.617574 0.419672 21.504 11.683672 22.544787 42.269377 18.045902 59.979541-2.501246 9.853902-6.563672 14.520656-10.609311 16.518295C712.250754 759.640131 587.742426 783.292852 562.813902 783.292852z"></path><path d="M646.395803 648.930623c-0.117508-0.402885-11.079344-40.103869-39.936-43.830557-27.010098 0.083934-84.840918 4.733902-85.411672 4.784262l-3.844197 0.318951-3.172721-2.165508c-0.604328-0.402885-60.013115-40.641049-85.193443-50.159213-20.429639-6.211148-75.473836-5.271082-94.879475-4.347803l-1.024-21.806164c3.021639-0.134295 73.979803-3.374164 102.970754 5.522885 24.878164 9.383869 74.080525 41.816131 87.207869 50.578885 13.597377-1.057574 59.459148-4.465311 84.756984-4.465311 44.904918 5.707541 59.073049 57.797246 59.66059 60.013115L646.395803 648.930623z"></path></symbol><symbol id="ef-pay-cash" viewBox="0 0 1024 1024"><path d="M395.850653 227.891314c0 6.808056 5.918803 12.456706 13.461593 13.19144l0.048095 0.085958 1.617847 0 241.197364 0 3.78214 0 0.196475-0.485047c6.402827-1.545192 11.148921-6.699586 11.148921-12.792351l0-12.784164c0-0.532119-0.046049-1.054005-0.116657-1.569752l42.933835-105.647155c0 0-17.502629-18.809391-82.184791-16.59598-18.020422 0.61603-105.013729 28.767184-103.492072 12.170181 1.521656-16.59598 10.599406-21.869077-18.263969-33.19196-58.749032-23.047926-170.458253 39.83117-170.458253 39.83117l60.129472 107.020432L395.850653 227.891314z"></path><path d="M900.758118 601.430822c-33.17047-108.218724-103.756085-175.4745-171.540911-233.736439-24.216541-21.168112-44.209898-37.59934-64.175625-50.052976l0-22.48306c0-7.718799-7.194866-14.033621-15.989159-14.033621L413.663344 281.124725c-8.794293 0-15.989159 6.314823-15.989159 14.033621l0 19.936051c-25.155936 13.605879-49.229215 32.090882-76.703963 56.106856-67.785849 58.262962-142.844336 132.022872-177.372733 239.182474-23.777543 73.794703-18.209734 141.034107-5.134951 188.713013-23.006993 10.431583-37.681204 47.048549-30.807656 68.164472 13.69286 42.061978 67.786873 67.546396 113.390513 67.546396 16.279778 0 31.445176-4.152577 44.234457-11.290137 54.084803 27.359115 116.218932 34.269501 203.577558 35.287691 71.264067-0.831948 166.871565-9.976212 245.867734-29.965475 19.358907 26.102495 73.063039 29.965475 102.751199 29.965475 65.88864 0 92.897783-47.979758 63.069431-108.750843C917.793096 762.17176 932.298462 704.331423 900.758118 601.430822zM657.779178 619.571994l0 55.006801-93.536326 0 0 41.718147 93.536326 0 0 55.536874-93.536326 0 0 76.264964L479.740272 848.098781l0-76.264964-96.724948 0L383.015324 716.296943l96.724948 0 0-41.718147-96.724948 0 0-55.006801 77.858252 0L356.973204 436.751179l90.347704 0c40.922015 84.679611 66.785056 140.483568 77.593216 167.408801l1.860371 0c1.417279-3.89368 3.097548-8.768711 5.048993-14.614859 3.189645-9.387811 15.944134-37.023218 38.265512-82.907245l33.216519-69.886697 85.563748 0L582.044286 619.571994 657.779178 619.571994z"></path></symbol></svg>